<svg width="23" height="25" viewBox="0 0 23 25" fill="none" xmlns="http://www.w3.org/2000/svg">
<path d="M8.54286 0.705811C10.8086 0.705811 12.9815 1.65031 14.5836 3.33154C16.1857 5.01276 17.0857 7.29299 17.0857 9.6706C17.0857 11.8911 16.3103 13.9323 15.0354 15.5046L15.3903 15.877H16.4286L23 22.773L21.0286 24.8418L14.4571 17.9458V16.8562L14.1023 16.4838C12.604 17.8217 10.6589 18.6354 8.54286 18.6354C6.27715 18.6354 4.10424 17.6909 2.50214 16.0097C0.900048 14.3284 0 12.0482 0 9.6706C0 7.29299 0.900048 5.01276 2.50214 3.33154C4.10424 1.65031 6.27715 0.705811 8.54286 0.705811ZM8.54286 3.46421C5.25714 3.46421 2.62857 6.2226 2.62857 9.6706C2.62857 13.1186 5.25714 15.877 8.54286 15.877C11.8286 15.877 14.4571 13.1186 14.4571 9.6706C14.4571 6.2226 11.8286 3.46421 8.54286 3.46421Z" fill="#C3C3C3"/>
</svg>
