<svg width="28" height="33" viewBox="0 0 28 33" fill="none" xmlns="http://www.w3.org/2000/svg">
<path d="M10.8889 29.8571H17.1111C17.1111 31.5857 15.7111 33 14 33C12.2889 33 10.8889 31.5857 10.8889 29.8571ZM28 26.7143V28.2857H0V26.7143L3.11111 23.5714V14.1429C3.11111 9.27143 6.22222 5.02857 10.8889 3.61429V3.14286C10.8889 1.41429 12.2889 0 14 0C15.7111 0 17.1111 1.41429 17.1111 3.14286V3.61429C21.7778 5.02857 24.8889 9.27143 24.8889 14.1429V23.5714L28 26.7143ZM21.7778 14.1429C21.7778 9.74286 18.3556 6.28571 14 6.28571C9.64444 6.28571 6.22222 9.74286 6.22222 14.1429V25.1429H21.7778V14.1429Z" fill="#0E3EDA"/>
</svg>
